<svg width="65" height="65" fill="none" xmlns="http://www.w3.org/2000/svg"><g clip-path="url(#clip0_302_172)" fill-rule="evenodd" clip-rule="evenodd"><path d="M61.78 16.933c-1.736-3.088-3.62-3.656-7.456-3.872-3.832-.26-13.468-.368-21.816-.368-8.364 0-18.004.108-21.832.364-3.828.22-5.716.784-7.468 3.876C1.42 20.017.5 25.329.5 34.68v.032c0 9.312.92 14.664 2.708 17.716 1.752 3.088 3.636 3.648 7.464 3.908 3.832.224 13.472.356 21.836.356 8.348 0 17.984-.132 21.82-.352 3.836-.26 5.72-.82 7.456-3.908 1.804-3.052 2.716-8.404 2.716-17.716v-.032c0-9.356-.912-14.668-2.72-17.752z" fill="#F44336"/><path d="M24.5 46.693v-24l20 12-20 12z" fill="#FAFAFA"/></g><defs><clipPath id="clip0_302_172"><path fill="#fff" transform="translate(.5 .693)" d="M0 0h64v64H0z"/></clipPath></defs></svg>