<svg width="173" height="300" fill="none" xmlns="http://www.w3.org/2000/svg"><path d="M70.547 44.932h24.928a2.494 2.494 0 000-4.985H70.547a2.494 2.494 0 000 4.985zm99.71-2.493h-9.971a2.494 2.494 0 000 4.986h9.971a2.494 2.494 0 000-4.986zm-19.463-17.933c.638 0 1.276-.244 1.765-.727l7.049-7.05a2.495 2.495 0 000-3.525 2.495 2.495 0 00-3.525 0l-7.049 7.05a2.495 2.495 0 000 3.525 2.485 2.485 0 001.76.727zM127.88 15.02a2.494 2.494 0 002.493-2.493v-9.97a2.493 2.493 0 00-4.985 0v9.97a2.493 2.493 0 002.492 2.493zM58.831 44.184c.449.504 1.097.748 1.745.748.648 0 1.296-.25 1.745-.748.25-.2.449-.498.548-.797.15-.3.2-.599.2-.943 0-.648-.25-1.296-.748-1.75a1.726 1.726 0 00-.798-.543c-.897-.399-1.994-.15-2.692.543-.498.454-.748 1.102-.748 1.75 0 .344.05.648.2.943.1.299.299.598.548.797z" fill="#F7AF9D"/><path d="M152.808 54.903v-9.97c0-13.746-11.183-24.928-24.928-24.928H28.17c-13.745 0-24.927 11.182-24.927 24.927v9.971A2.494 2.494 0 00.75 57.396v14.956a2.494 2.494 0 002.493 2.493v14.957A2.494 2.494 0 00.75 92.294v4.986a2.494 2.494 0 002.493 2.493v4.985a2.494 2.494 0 00-2.493 2.493v4.985a2.494 2.494 0 002.493 2.493v159.536c0 13.745 11.182 24.928 24.927 24.928h99.71c13.745 0 24.928-11.183 24.928-24.928V84.816a2.494 2.494 0 002.493-2.493V57.396a2.494 2.494 0 00-2.493-2.493zM13.214 59.89h129.623v184.463H13.214V59.889zM28.17 29.975h99.71c8.246 0 14.957 6.711 14.957 14.957v9.971H13.214v-9.97c0-8.247 6.71-14.957 14.956-14.957zm99.71 259.247H28.17c-8.246 0-14.956-6.711-14.956-14.957v-24.927h129.623v24.927c0 8.246-6.711 14.957-14.957 14.957z" fill="#F7AF9D"/><path d="M78.025 259.309c-5.499 0-9.97 4.472-9.97 9.971s4.471 9.971 9.97 9.971c5.5 0 9.971-4.472 9.971-9.971s-4.472-9.971-9.97-9.971zm0 14.956a4.99 4.99 0 01-4.985-4.985 4.99 4.99 0 014.985-4.986 4.99 4.99 0 014.986 4.986 4.99 4.99 0 01-4.986 4.985zm26.039-141.593a4.21 4.21 0 011.207-2.562 4.214 4.214 0 012.988-1.245 4.203 4.203 0 012.987 1.245 4.209 4.209 0 011.221 2.946 3.573 3.573 0 01-.337 1.641 4.199 4.199 0 01-.884 1.347 5.007 5.007 0 01-1.388.926 4.207 4.207 0 01-5.103-1.551 4.207 4.207 0 01-.691-2.747zm7.17-23.633a4.204 4.204 0 00-2.975-1.233 4.203 4.203 0 00-3.662 2.104 4.206 4.206 0 01-6.968.476 4.205 4.205 0 01-.312-4.684 12.624 12.624 0 1110.942 18.937 4.207 4.207 0 110-8.416 4.208 4.208 0 002.975-7.184z" fill="#F7AF9D"/><path fill-rule="evenodd" clip-rule="evenodd" d="M111.75 143.819v20.72a10.65 10.65 0 01-10.65 10.65H59.956l-13.136 13.17a3.556 3.556 0 01-2.52 1.029 2.978 2.978 0 01-1.349-.284 3.547 3.547 0 01-2.201-3.266v-56.799a10.65 10.65 0 0110.65-10.65h14.341c1.272.718 2.684 1.894 2.684 3.751 0 1.66-1.129 2.709-2.277 3.349H51.4a3.55 3.55 0 00-3.55 3.55v16.898l6.674-6.638a10.648 10.648 0 0115.052 0L79.8 149.487l3.124-3.088a10.863 10.863 0 0115.052 0l6.674 6.638v-8.457c.706-1.315 1.905-2.865 3.85-2.865 1.577 0 2.602 1.018 3.25 2.104zm-10.65 24.27h-2.733L84.84 154.457l3.089-3.089a3.55 3.55 0 015.005 0l11.715 11.68v1.491a3.55 3.55 0 01-3.55 3.55zm-45.12 1.029l-8.13 8.165v-21.335l11.715-11.679a3.548 3.548 0 014.97 0l23.82 23.82H58.5a3.557 3.557 0 00-2.52 1.029z" fill="#F7AF9D"/></svg>