<svg width="65" height="65" fill="none" xmlns="http://www.w3.org/2000/svg"><g clip-path="url(#clip0_302_173)"><path d="M60.944.693H4.056A3.556 3.556 0 00.5 4.248v56.89a3.556 3.556 0 003.556 3.555h56.888a3.556 3.556 0 003.556-3.556V4.248A3.556 3.556 0 0060.944.693z" fill="#117EB8"/><path fill-rule="evenodd" clip-rule="evenodd" d="M12.179 25.447h8.554v27.521h-8.554V25.447zm4.278-13.681a4.96 4.96 0 014.958 4.957 4.962 4.962 0 01-4.958 4.961 4.96 4.96 0 110-9.918zm9.641 13.68h8.205v3.76h.113c1.143-2.163 3.933-4.444 8.094-4.444 8.661 0 10.261 5.7 10.261 13.111v15.095h-8.548V39.584c0-3.19-.06-7.296-4.445-7.296-4.45 0-5.134 3.476-5.134 7.066v13.614h-8.547V25.447l.001-.001z" fill="#fff"/></g><defs><clipPath id="clip0_302_173"><path fill="#fff" transform="translate(.5 .693)" d="M0 0h64v64H0z"/></clipPath></defs></svg>