<svg width="62" height="63" fill="none" xmlns="http://www.w3.org/2000/svg"><path d="M18 12.062h3a2 2 0 000-4h-3a2 2 0 000 4z" fill="#2A3C4D"/><path d="M54 14.062h-1.512l-2.145-7.149a3.975 3.975 0 00-3.831-2.85H31.488a3.977 3.977 0 00-3.832 2.85l-2.144 7.15H8c-4.411 0-8 3.588-8 8v32c0 4.41 3.589 8 8 8h46c4.411 0 8-3.59 8-8v-32c0-4.412-3.589-8-8-8zm-22.512-6h15.023l1.8 6H29.688l1.8-6zM4 26.062h6v24H4v-24zm54 28c0 2.206-1.794 4-4 4H8c-2.206 0-4-1.794-4-4h8a2 2 0 002-2v-28a2 2 0 00-2-2H4c0-2.206 1.794-4 4-4h46c2.206 0 4 1.794 4 4v32z" fill="#2A3C4D"/><path d="M38 21.062c-9.374 0-17 7.626-17 17 0 9.374 7.626 17 17 17 9.374 0 17-7.626 17-17 0-9.374-7.626-17-17-17zm0 30c-7.168 0-13-5.832-13-13s5.832-13 13-13 13 5.832 13 13-5.832 13-13 13z" fill="#2A3C4D"/><path d="M38 29.062c-4.962 0-9 4.038-9 9s4.038 9 9 9 9-4.038 9-9-4.038-9-9-9zm0 14c-2.757 0-5-2.243-5-5s2.243-5 5-5 5 2.243 5 5-2.243 5-5 5zM21.586 5.476c.39.391.902.586 1.414.586a2 2 0 001.414-3.414l-2-2a2 2 0 10-2.828 2.828l2 2z" fill="#2A3C4D"/></svg>