<svg width="49" height="54" fill="none" xmlns="http://www.w3.org/2000/svg"><path d="M37.402 22.069a2.667 2.667 0 011.632-2.207 2.666 2.666 0 013.693 2.45c.012.359-.061.715-.214 1.04-.13.318-.32.608-.56.853a3.177 3.177 0 01-.88.587 2.667 2.667 0 01-3.671-2.723zm4.543-14.976c-.5-.5-1.178-.78-1.885-.78a2.667 2.667 0 00-2.32 1.332 2.667 2.667 0 01-4.416.302 2.667 2.667 0 01-.197-2.968 8 8 0 116.933 12 2.667 2.667 0 010-5.334 2.666 2.666 0 001.885-4.552zM8 9.131h15.999c.707 0 1.385.29 1.885.806s.781 1.216.781 1.945c0 .73-.28 1.43-.78 1.945-.5.516-1.18.806-1.886.806h-16c-.707 0-1.385.29-1.885.806a2.796 2.796 0 00-.78 1.945v26.74l4.186-3.99a2.623 2.623 0 011.813-.742h23.332c.707 0 1.385-.29 1.885-.806s.781-1.216.781-1.945V33.89c0-.73.281-1.43.781-1.945a2.626 2.626 0 011.886-.806c.707 0 1.385.29 1.885.806.5.515.781 1.215.781 1.945v2.75a8.388 8.388 0 01-2.343 5.836 7.877 7.877 0 01-5.656 2.418H12.373l-8 7.51c-.464.45-1.07.713-1.706.742a2.855 2.855 0 01-1.067-.22 2.69 2.69 0 01-1.167-1.018A2.814 2.814 0 010 50.395v-33.01a8.39 8.39 0 012.343-5.837A7.877 7.877 0 018 9.131z" fill="#2A3C4D"/></svg>