<svg width="65" height="65" fill="none" xmlns="http://www.w3.org/2000/svg"><g clip-path="url(#clip0_357_63)"><path d="M16.729 64.466a21.549 21.549 0 01-7.249-1.342 12.126 12.126 0 01-4.489-2.92 12.035 12.035 0 01-2.922-4.487 21.547 21.547 0 01-1.34-7.249C.538 44.353.5 43.12.5 32.693s.042-11.656.227-15.774c.03-2.474.484-4.925 1.342-7.246a12.173 12.173 0 012.92-4.491 12.05 12.05 0 014.49-2.92A21.547 21.547 0 0116.726.918C20.843.731 22.08.693 32.5.693c10.42 0 11.656.042 15.774.226 2.475.03 4.926.484 7.248 1.342a12.082 12.082 0 014.489 2.92 12.089 12.089 0 012.92 4.49 21.546 21.546 0 011.343 7.249c.188 4.118.227 5.35.227 15.774 0 10.423-.039 11.656-.227 15.774a21.648 21.648 0 01-1.343 7.249 12.926 12.926 0 01-7.41 7.407 21.549 21.549 0 01-7.248 1.343c-4.114.188-5.351.227-15.774.227-10.424 0-11.656-.037-15.77-.227" fill="url(#paint0_radial_357_63)"/><path d="M16.729 64.466a21.549 21.549 0 01-7.249-1.342 12.126 12.126 0 01-4.489-2.92 12.035 12.035 0 01-2.922-4.487 21.547 21.547 0 01-1.34-7.249C.538 44.353.5 43.12.5 32.693s.042-11.656.227-15.774c.03-2.474.484-4.925 1.342-7.246a12.173 12.173 0 012.92-4.491 12.05 12.05 0 014.49-2.92A21.547 21.547 0 0116.726.918C20.843.731 22.08.693 32.5.693c10.42 0 11.656.042 15.774.226 2.475.03 4.926.484 7.248 1.342a12.082 12.082 0 014.489 2.92 12.089 12.089 0 012.92 4.49 21.546 21.546 0 011.343 7.249c.188 4.118.227 5.35.227 15.774 0 10.423-.039 11.656-.227 15.774a21.648 21.648 0 01-1.343 7.249 12.926 12.926 0 01-7.41 7.407 21.549 21.549 0 01-7.248 1.343c-4.114.188-5.351.227-15.774.227-10.424 0-11.656-.037-15.77-.227" fill="url(#paint1_radial_357_63)"/><path d="M24.642 32.829a7.925 7.925 0 1115.85 0 7.925 7.925 0 01-15.85 0zm-4.284 0a12.209 12.209 0 1024.417 0 12.209 12.209 0 00-24.417 0zm22.048-12.693a2.853 2.853 0 105.702.003 2.853 2.853 0 00-5.701-.003M22.962 52.183a13.14 13.14 0 01-4.415-.816 7.872 7.872 0 01-4.514-4.511 13.129 13.129 0 01-.815-4.416c-.116-2.506-.138-3.259-.138-9.608 0-6.35.025-7.1.138-9.609.018-1.507.294-3 .816-4.415a7.869 7.869 0 014.513-4.513c1.414-.524 2.907-.8 4.415-.816 2.506-.115 3.26-.138 9.606-.138s7.1.024 9.609.139c1.507.018 3 .294 4.415.815a7.867 7.867 0 014.513 4.513c.524 1.415.8 2.908.816 4.416.115 2.51.138 3.259.138 9.609s-.023 7.1-.138 9.608a13.193 13.193 0 01-.816 4.416 7.873 7.873 0 01-4.513 4.511c-1.414.524-2.908.8-4.415.816-2.507.115-3.26.138-9.61.138-6.349 0-7.1-.023-9.605-.138m-.197-42.986a17.434 17.434 0 00-5.772 1.104 12.155 12.155 0 00-6.954 6.954 17.44 17.44 0 00-1.105 5.773c-.117 2.535-.143 3.345-.143 9.802 0 6.457.027 7.268.143 9.803a17.44 17.44 0 001.105 5.773 12.157 12.157 0 006.954 6.954 17.45 17.45 0 005.772 1.104c2.536.115 3.346.144 9.803.144 6.457 0 7.267-.027 9.803-.144a17.44 17.44 0 005.772-1.104 12.156 12.156 0 006.954-6.954 17.39 17.39 0 001.104-5.773c.116-2.537.142-3.346.142-9.803 0-6.457-.027-7.267-.142-9.802a17.433 17.433 0 00-1.104-5.773 12.16 12.16 0 00-6.952-6.954 17.41 17.41 0 00-5.773-1.104c-2.535-.116-3.345-.144-9.801-.144-6.456 0-7.268.027-9.805.144" fill="#fff"/></g><defs><radialGradient id="paint0_radial_357_63" cx="0" cy="0" r="1" gradientUnits="userSpaceOnUse" gradientTransform="translate(4.642 63.291) scale(81.2562)"><stop offset=".09" stop-color="#FA8F21"/><stop offset=".78" stop-color="#D82D7E"/></radialGradient><radialGradient id="paint1_radial_357_63" cx="0" cy="0" r="1" gradientUnits="userSpaceOnUse" gradientTransform="translate(44.83 61.236) scale(71.5062)"><stop offset=".64" stop-color="#8C3AAA" stop-opacity="0"/><stop offset="1" stop-color="#8C3AAA"/></radialGradient><clipPath id="clip0_357_63"><path fill="#fff" transform="translate(.5 .693)" d="M0 0h64v64H0z"/></clipPath></defs></svg>