<svg width="173" height="300" fill="none" xmlns="http://www.w3.org/2000/svg"><path d="M70.047 44.932h24.928a2.494 2.494 0 000-4.985H70.047a2.494 2.494 0 000 4.985zm99.71-2.493h-9.971a2.494 2.494 0 000 4.986h9.971a2.494 2.494 0 000-4.986zm-19.463-17.933c.638 0 1.276-.244 1.765-.727l7.049-7.05a2.495 2.495 0 000-3.525 2.495 2.495 0 00-3.525 0l-7.049 7.05a2.495 2.495 0 000 3.525 2.485 2.485 0 001.76.727zM127.38 15.02a2.494 2.494 0 002.493-2.493v-9.97a2.493 2.493 0 00-4.985 0v9.97a2.493 2.493 0 002.492 2.493zM58.331 44.184c.449.504 1.097.748 1.745.748.648 0 1.296-.25 1.745-.748.25-.2.449-.498.548-.797.15-.3.2-.599.2-.943 0-.648-.25-1.296-.748-1.75a1.726 1.726 0 00-.798-.543c-.897-.399-1.994-.15-2.692.543-.498.454-.748 1.102-.748 1.75 0 .344.05.648.2.943.1.299.299.598.548.797z" fill="#F7AF9D"/><path d="M152.308 54.903v-9.97c0-13.746-11.183-24.928-24.928-24.928H27.67c-13.745 0-24.927 11.182-24.927 24.927v9.971A2.494 2.494 0 00.25 57.396v14.956a2.494 2.494 0 002.493 2.493v14.957A2.494 2.494 0 00.25 92.294v4.986a2.494 2.494 0 002.493 2.493v4.985a2.494 2.494 0 00-2.493 2.493v4.985a2.494 2.494 0 002.493 2.493v159.536c0 13.745 11.182 24.928 24.927 24.928h99.71c13.745 0 24.928-11.183 24.928-24.928V84.816a2.494 2.494 0 002.493-2.493V57.396a2.494 2.494 0 00-2.493-2.493zM12.714 59.89h129.623v184.463H12.714V59.889zM27.67 29.975h99.71c8.246 0 14.957 6.711 14.957 14.957v9.971H12.714v-9.97c0-8.247 6.71-14.957 14.956-14.957zm99.71 259.247H27.67c-8.246 0-14.956-6.711-14.956-14.957v-24.927h129.623v24.927c0 8.246-6.711 14.957-14.957 14.957z" fill="#F7AF9D"/><path d="M77.525 259.309c-5.499 0-9.97 4.472-9.97 9.971s4.471 9.971 9.97 9.971c5.5 0 9.971-4.472 9.971-9.971s-4.472-9.971-9.97-9.971zm0 14.956a4.99 4.99 0 01-4.985-4.985 4.99 4.99 0 014.985-4.986 4.99 4.99 0 014.986 4.986 4.99 4.99 0 01-4.986 4.985zm46.225-120.703c0-25.199-20.3-45.5-45.5-45.5s-45.5 20.301-45.5 45.5c0 25.2 20.3 45.5 45.5 45.5s45.5-20.3 45.5-45.5zm-42 38.15v-3.15c0-2.1-1.4-3.5-3.5-3.5s-3.5 1.4-3.5 3.5v3.15c-18.55-1.75-33.25-16.45-34.65-34.65h3.15c2.1 0 3.5-1.399 3.5-3.5 0-2.1-1.4-3.5-3.5-3.5H40.1c1.75-18.55 16.45-33.25 34.65-34.65v3.15c0 2.1 1.4 3.5 3.5 3.5s3.5-1.4 3.5-3.5v-3.15c18.55 1.75 33.25 16.451 34.65 34.65h-3.15c-2.1 0-3.5 1.4-3.5 3.5 0 2.101 1.4 3.5 3.5 3.5h3.15c-1.4 18.551-16.1 33.25-34.65 34.65zm-49-69.65c1.05 0 1.75-.35 2.45-1.05l14-14c1.4-1.4 1.4-3.499 0-4.899s-3.5-1.4-4.9 0l-14 14c-1.4 1.4-1.4 3.499 0 4.899.7.7 1.4 1.05 2.45 1.05zm79.45-19.949c-1.4-1.4-3.5-1.4-4.9 0-1.4 1.4-1.4 3.499 0 4.899l14 14c.7.7 1.4 1.05 2.45 1.05 1.05 0 1.75-.35 2.45-1.05 1.4-1.4 1.4-3.499 0-4.899l-14-14z" fill="#F7AF9D"/><path d="M78.75 129.062c2.1 0 3.5 1.4 3.5 3.5v17.5h10.5c2.1 0 3.5 1.4 3.5 3.5 0 2.101-1.4 3.5-3.5 3.5h-14c-2.1 0-3.5-1.399-3.5-3.5v-21c0-2.1 1.4-3.5 3.5-3.5z" fill="#F7AF9D"/></svg>