<svg width="65" height="65" fill="none" xmlns="http://www.w3.org/2000/svg"><g clip-path="url(#clip0_302_171)"><mask id="a" style="mask-type:luminance" maskUnits="userSpaceOnUse" x="0" y="0" width="65" height="65"><path d="M64.5.693H.5v64h64v-64z" fill="#fff"/></mask><g mask="url(#a)"><path d="M57 .693H8a7.5 7.5 0 00-7.5 7.5v49a7.5 7.5 0 007.5 7.5h49a7.5 7.5 0 007.5-7.5v-49a7.5 7.5 0 00-7.5-7.5z" fill="#000"/><path d="M44.988 13.193h6.616L37.15 29.713l17.004 22.48H40.84L30.412 38.559 18.48 52.193h-6.62l15.46-17.67-16.312-21.33H24.66l9.426 12.462 10.902-12.462zm-2.322 35.04h3.666L22.668 16.945h-3.934l23.932 31.288z" fill="#fff"/></g></g><defs><clipPath id="clip0_302_171"><path fill="#fff" transform="translate(.5 .693)" d="M0 0h64v64H0z"/></clipPath></defs></svg>