<svg width="54" height="54" fill="none" xmlns="http://www.w3.org/2000/svg"><path d="M42.684 32.439a10.666 10.666 0 00-8.213 3.947l-13.6-6.267a9.707 9.707 0 000-6.027l13.6-6.266a10.667 10.667 0 10-2.454-6.72c.008.635.07 1.268.187 1.893l-14.08 6.48a10.666 10.666 0 100 15.253l14.08 6.48a11.117 11.117 0 00-.187 1.894 10.666 10.666 0 1010.667-10.667zm0-26.667a5.333 5.333 0 110 10.666 5.333 5.333 0 010-10.666zm-32 26.667a5.333 5.333 0 110-10.666 5.333 5.333 0 010 10.666zm32 16a5.333 5.333 0 110-10.665 5.333 5.333 0 010 10.665z" fill="#2A3C4D"/></svg>