<svg width="418" height="278" viewBox="0 0 418 278" fill="none" xmlns="http://www.w3.org/2000/svg">
<path d="M190.531 179.442C190.531 179.442 188.025 209.66 219.894 209.66C251.763 209.66 249.238 179.384 249.238 179.384C242.294 179.384 223.395 157.236 219.894 157.236C216.393 157.236 200.975 179.422 190.531 179.422V179.442Z" fill="#F1F3E6"/>
<path d="M208.512 111.334C208.512 111.334 223.375 115.179 230.893 111.334C223.356 122.561 219.894 127.649 219.894 127.649L208.512 111.334Z" fill="#F1F3E6"/>
<path d="M219.913 212.835C202.831 212.835 192.138 205.874 187.183 191.587C186.916 190.822 186.686 190.018 186.514 189.196C184.429 179.748 191.086 169.936 204.361 150.409L216.087 133.157L204.361 115.906C203.386 114.471 203.749 112.501 205.203 111.507C206.638 110.531 208.608 110.895 209.603 112.348L219.932 127.534L230.243 112.348C242.122 94.8862 248.645 85.2659 247.153 78.4762C247.019 77.9025 246.866 77.3287 246.674 76.8123C244.149 69.5062 238.621 59.8094 219.913 59.8094C201.205 59.8094 195.677 69.5062 193.152 76.8123C192.96 77.3478 192.807 77.9216 192.673 78.4954C191.908 81.9572 193.133 86.184 196.767 92.6294C197.628 94.1594 197.092 96.072 195.562 96.9327C194.032 97.7934 192.119 97.2578 191.258 95.7278C186.724 87.6949 185.347 82.3205 186.495 77.1183C186.667 76.2959 186.897 75.4926 187.164 74.7276C192.119 60.4214 202.831 53.4788 219.894 53.4788C236.957 53.4788 247.669 60.4406 252.624 74.7276C252.891 75.4926 253.121 76.2959 253.293 77.1183C255.378 86.5665 248.702 96.3589 235.427 115.906L223.701 133.157L235.427 150.409C236.402 151.862 236.039 153.813 234.585 154.808C233.15 155.783 231.18 155.42 230.185 153.966L219.875 138.78L209.545 153.966C197.685 171.428 191.143 181.048 192.635 187.838C192.769 188.412 192.922 188.966 193.113 189.521C195.638 196.827 201.167 206.524 219.875 206.524C238.583 206.524 244.111 196.827 246.636 189.521C246.827 188.985 246.981 188.431 247.114 187.838C247.88 184.376 246.655 180.149 243.021 173.704C242.16 172.174 242.696 170.261 244.226 169.401C245.737 168.54 247.669 169.075 248.53 170.605C253.064 178.638 254.441 184.013 253.293 189.215C253.121 190.037 252.891 190.822 252.624 191.606C247.669 205.912 236.957 212.874 219.894 212.874L219.913 212.835Z" fill="#F7AF9D"/>
<path d="M3.6987 77.5965C2.111 77.5965 0.829361 76.315 0.829361 74.7276V7.4046H83.1412C84.7289 7.4046 86.0105 8.68603 86.0105 10.2735C86.0105 11.8609 84.7289 13.1424 83.1412 13.1424H6.56804V74.7276C6.56804 76.315 5.2864 77.5965 3.6987 77.5965Z" fill="#F7AF9D"/>
<path d="M417.171 238.273H334.859C333.271 238.273 331.99 236.991 331.99 235.404C331.99 233.816 333.271 232.535 334.859 232.535H411.432V170.95C411.432 169.362 412.714 168.081 414.301 168.081C415.889 168.081 417.171 169.362 417.171 170.95V238.273Z" fill="#F7AF9D"/>
<path d="M294.688 238.273H188.465C186.877 238.273 185.596 236.991 185.596 235.404C185.596 233.816 186.877 232.535 188.465 232.535H294.688C296.276 232.535 297.557 233.816 297.557 235.404C297.557 236.991 296.276 238.273 294.688 238.273Z" fill="#F7AF9D"/>
<path d="M217.35 13.1424H111.127C109.539 13.1424 108.257 11.8609 108.257 10.2735C108.257 8.68603 109.539 7.4046 111.127 7.4046H217.35C218.937 7.4046 220.219 8.68603 220.219 10.2735C220.219 11.8609 218.937 13.1424 217.35 13.1424Z" fill="#F7AF9D"/>
<path d="M62.2906 103.206C62.9793 103.11 63.5914 103.302 64.127 103.742C64.6626 104.181 64.9687 104.774 65.0643 105.463C65.1408 106.094 64.9878 106.687 64.5861 107.261C64.1844 107.834 63.6488 108.16 62.941 108.255C57.451 108.982 52.1906 108.619 47.1596 107.165C42.1287 105.711 37.576 103.416 33.5016 100.241C29.4271 97.0666 26.0413 93.2223 23.3632 88.6703C20.6852 84.1184 18.9636 79.0692 18.2367 73.5035C17.5098 67.9379 17.9115 62.6401 19.3844 57.0936C19.614 56.4241 20.0157 55.9077 20.5895 55.5635C21.1634 55.2001 21.7947 55.1427 22.4451 55.3722C23.0954 55.6017 23.6119 56.0225 23.9562 56.6154C24.3006 57.2083 24.4153 57.8395 24.2623 58.4897C22.9042 63.1373 22.5598 67.9188 23.2102 72.8533C23.8606 77.7877 25.3527 82.1293 27.7246 86.1266C30.0966 90.1239 33.0425 93.4709 36.5431 96.2059C40.0437 98.9218 44.0034 100.93 48.4222 102.231C52.8409 103.512 57.451 103.856 62.2332 103.225L62.2906 103.206Z" fill="#F1F3E6"/>
<path d="M114.895 56.0799C117.726 56.0799 120.423 56.6345 122.987 57.7438C125.55 58.8531 127.769 60.3449 129.644 62.2193C131.518 64.0936 133.01 66.3122 134.12 68.8751C135.229 71.4379 135.784 74.1347 135.784 76.9653V104.621C135.784 105.233 135.535 105.788 135.038 106.285C134.541 106.782 133.948 107.031 133.259 107.031C132.57 107.031 131.996 106.782 131.537 106.285C131.078 105.788 130.849 105.233 130.849 104.621V76.9653C130.849 74.8232 130.428 72.7767 129.586 70.8259C128.745 68.8751 127.597 67.1729 126.143 65.7193C124.689 64.2657 122.987 63.1182 121.036 62.2766C119.084 61.4351 117.038 61.0143 114.895 61.0143C112.753 61.0143 110.591 61.4351 108.64 62.2766C106.689 63.1182 105.006 64.2657 103.59 65.7193C102.174 67.1729 101.046 68.8751 100.204 70.8259C99.3625 72.7767 98.9417 74.8232 98.9417 76.9653C98.9417 77.6538 98.693 78.2467 98.1956 78.744C97.6983 79.2413 97.1053 79.4899 96.4167 79.4899C95.8045 79.4899 95.2498 79.2413 94.7524 78.744C94.2551 78.2467 94.0064 77.6538 94.0064 76.9653V2.50837C94.0064 1.89634 94.2551 1.34169 94.7524 0.84442C95.2498 0.347147 95.8045 0.0985107 96.4167 0.0985107C97.1053 0.0985107 97.6983 0.347147 98.1956 0.84442C98.693 1.34169 98.9417 1.89634 98.9417 2.50837V63.5198C100.855 61.3012 103.188 59.5034 105.943 58.1263C108.697 56.7493 111.682 56.0607 114.895 56.0607V56.0799Z" fill="#F1F3E6"/>
<path d="M149.557 56.1946C150.245 56.1946 150.838 56.4433 151.336 56.9405C151.833 57.4378 152.082 58.0307 152.082 58.7193V104.507C152.082 105.195 151.833 105.788 151.336 106.285C150.838 106.783 150.245 107.031 149.557 107.031C148.868 107.031 148.275 106.783 147.778 106.285C147.28 105.788 147.032 105.195 147.032 104.507V58.7193C147.032 58.0307 147.28 57.4378 147.778 56.9405C148.275 56.4433 148.868 56.1946 149.557 56.1946Z" fill="#F1F3E6"/>
<path d="M149.557 192.199C148.868 192.199 148.275 191.95 147.778 191.453C147.28 190.955 147.032 190.362 147.032 189.674V134.936C147.032 134.247 147.28 133.654 147.778 133.157C148.275 132.66 148.868 132.411 149.557 132.411C150.245 132.411 150.838 132.66 151.336 133.157C151.833 133.654 152.082 134.247 152.082 134.936V189.674C152.082 190.362 151.833 190.955 151.336 191.453C150.838 191.95 150.245 192.199 149.557 192.199Z" fill="#F1F3E6"/>
<path d="M316.839 162.649C317.528 162.649 318.102 162.879 318.561 163.338C319.02 163.797 319.25 164.371 319.25 165.059V252.426C319.25 255.945 318.58 259.254 317.241 262.352C315.902 265.451 314.085 268.147 311.789 270.442C309.494 272.738 306.816 274.555 303.755 275.893C300.695 277.232 297.404 277.902 293.885 277.902C290.365 277.902 287.056 277.232 283.957 275.893C280.858 274.555 278.142 272.738 275.808 270.442C273.474 268.147 271.638 265.451 270.299 262.352C268.96 259.254 268.29 255.945 268.29 252.426C268.29 251.355 268.347 250.303 268.462 249.27C268.577 248.237 268.787 247.185 269.094 246.114C269.247 245.502 269.61 245.005 270.184 244.623C270.758 244.24 271.427 244.125 272.192 244.278C272.805 244.508 273.283 244.909 273.627 245.483C273.971 246.057 274.067 246.688 273.914 247.377C273.531 249.136 273.34 250.819 273.34 252.426C273.34 255.257 273.876 257.915 274.947 260.401C276.018 262.888 277.491 265.068 279.366 266.942C281.24 268.817 283.421 270.289 285.908 271.361C288.395 272.432 291.054 272.967 293.885 272.967C296.716 272.967 299.26 272.432 301.747 271.361C304.233 270.289 306.395 268.817 308.231 266.942C310.068 265.068 311.522 262.888 312.593 260.401C313.664 257.915 314.2 255.257 314.2 252.426V188.125C314.2 185.294 313.664 182.636 312.593 180.149C311.522 177.663 310.068 175.483 308.231 173.608C306.395 171.734 304.233 170.261 301.747 169.19C299.26 168.119 296.639 167.584 293.885 167.584C291.13 167.584 288.395 168.119 285.908 169.19C283.421 170.261 281.24 171.734 279.366 173.608C277.491 175.483 276.018 177.663 274.947 180.149C273.876 182.636 273.34 185.294 273.34 188.125C273.34 190.955 273.876 193.499 274.947 195.986C276.018 198.472 277.491 200.652 279.366 202.527C281.24 204.401 283.421 205.874 285.908 206.945C288.395 208.016 291.054 208.551 293.885 208.551C295.644 208.551 297.443 208.303 299.279 207.805C301.115 207.308 302.799 206.562 304.329 205.568C304.941 205.185 305.572 205.089 306.223 205.281C306.873 205.472 307.39 205.874 307.772 206.486C308.155 207.098 308.27 207.71 308.117 208.322C307.964 208.934 307.581 209.431 306.969 209.814C304.979 211.114 302.856 212.051 300.599 212.625C298.342 213.199 296.104 213.486 293.885 213.486C290.365 213.486 287.056 212.816 283.957 211.477C280.858 210.139 278.142 208.322 275.808 206.027C273.474 203.732 271.638 201.054 270.299 197.994C268.96 194.934 268.29 191.644 268.29 188.125C268.29 184.606 268.96 181.297 270.299 178.198C271.638 175.1 273.474 172.384 275.808 170.051C278.142 167.718 280.858 165.881 283.957 164.543C287.056 163.204 290.365 162.534 293.885 162.534C298.016 162.534 301.861 163.472 305.419 165.346C308.977 167.22 311.904 169.726 314.2 172.862V165.059C314.2 164.371 314.448 163.797 314.946 163.338C315.443 162.879 316.074 162.649 316.839 162.649Z" fill="#F1F3E6"/>
<path d="M333.596 162.879C334.285 162.879 334.878 163.127 335.375 163.625C335.873 164.122 336.121 164.715 336.121 165.403V192.371C336.121 193.059 335.873 193.652 335.375 194.149C334.878 194.647 334.285 194.895 333.596 194.895C332.908 194.895 332.315 194.647 331.817 194.149C331.32 193.652 331.071 193.059 331.071 192.371V165.403C331.071 164.715 331.32 164.122 331.817 163.625C332.315 163.127 332.908 162.879 333.596 162.879Z" fill="#F1F3E6"/>
<path d="M398.099 162.649C398.788 162.649 399.381 162.898 399.878 163.395C400.375 163.892 400.624 164.485 400.624 165.174V210.961C400.624 211.65 400.375 212.243 399.878 212.74C399.381 213.237 398.788 213.486 398.099 213.486C397.41 213.486 396.817 213.237 396.32 212.74C395.823 212.243 395.574 211.65 395.574 210.961V188.01C395.574 185.179 395.038 182.521 393.967 180.035C392.896 177.548 391.442 175.387 389.606 173.551C387.769 171.715 385.608 170.261 383.121 169.19C380.634 168.119 377.975 167.584 375.144 167.584C372.313 167.584 369.654 168.119 367.168 169.19C364.681 170.261 362.519 171.715 360.683 173.551C358.847 175.387 357.393 177.548 356.321 180.035C355.25 182.521 354.715 185.179 354.715 188.01C354.715 190.841 355.25 193.499 356.321 195.986C357.393 198.472 358.847 200.633 360.683 202.469C362.519 204.305 364.681 205.759 367.168 206.83C369.654 207.901 372.313 208.436 375.144 208.436C378.817 208.436 382.337 207.48 385.704 205.568C386.316 205.185 386.947 205.07 387.597 205.223C388.248 205.376 388.764 205.759 389.147 206.371C389.529 206.983 389.625 207.614 389.434 208.264C389.242 208.915 388.841 209.431 388.229 209.814C384.25 212.262 379.888 213.486 375.144 213.486C371.625 213.486 368.315 212.816 365.216 211.477C362.118 210.139 359.42 208.322 357.125 206.027C354.829 203.732 353.012 201.035 351.673 197.936C350.334 194.838 349.665 191.529 349.665 188.01C349.665 184.491 350.334 181.182 351.673 178.084C353.012 174.985 354.829 172.289 357.125 169.993C359.42 167.698 362.118 165.881 365.216 164.543C368.315 163.204 371.625 162.534 375.144 162.534C379.353 162.534 383.236 163.472 386.794 165.346C390.352 167.22 393.279 169.726 395.574 172.862V165.174C395.574 164.485 395.823 163.892 396.32 163.395C396.817 162.898 397.41 162.649 398.099 162.649Z" fill="#F7AF9D"/>
<path d="M149.499 193.863C150.188 193.863 150.781 194.092 151.278 194.532C151.776 194.972 152.024 195.527 152.024 196.196V210.215C152.024 210.808 151.776 211.344 151.278 211.822C150.781 212.3 150.188 212.548 149.499 212.548C148.887 212.548 148.333 212.319 147.835 211.822C147.338 211.344 147.089 210.808 147.089 210.215V196.196C147.089 195.527 147.338 194.991 147.835 194.532C148.333 194.092 148.887 193.863 149.499 193.863Z" fill="#F7AF9D"/>
<path d="M333.539 148.879C334.687 148.879 335.662 149.28 336.466 150.083C337.269 150.887 337.671 151.862 337.671 153.01C337.671 154.081 337.269 155.018 336.466 155.821C335.662 156.625 334.687 157.026 333.539 157.026C332.468 157.026 331.53 156.625 330.727 155.821C329.924 155.018 329.522 154.081 329.522 153.01C329.522 151.862 329.924 150.887 330.727 150.083C331.53 149.28 332.468 148.879 333.539 148.879Z" fill="#F7AF9D"/>
<path d="M333.539 203.387C334.228 203.387 334.821 203.636 335.318 204.133C335.815 204.63 336.064 205.223 336.064 205.912V210.961C336.064 211.65 335.815 212.242 335.318 212.74C334.821 213.237 334.228 213.486 333.539 213.486C332.85 213.486 332.257 213.237 331.76 212.74C331.263 212.242 331.014 211.65 331.014 210.961V205.912C331.014 205.223 331.263 204.63 331.76 204.133C332.257 203.636 332.85 203.387 333.539 203.387Z" fill="#F7AF9D"/>
<path d="M172.512 56.0799C173.2 56.0799 173.793 56.3285 174.291 56.8258C174.788 57.3231 175.037 57.916 175.037 58.6045C175.037 59.293 174.788 59.8859 174.291 60.3832C173.793 60.8805 173.2 61.1291 172.512 61.1291C168.533 61.1291 164.898 62.1619 161.608 64.2275C161.225 64.457 160.805 64.5718 160.346 64.5718C159.351 64.5718 158.624 64.1893 158.165 63.4242C157.782 62.8122 157.668 62.181 157.821 61.5308C157.974 60.8805 158.356 60.3641 158.968 59.9816C163.1 57.3805 167.615 56.0799 172.512 56.0799Z" fill="#F7AF9D"/>
<path d="M96.4167 87.6375C97.1053 87.6375 97.6983 87.867 98.1956 88.326C98.693 88.7851 98.9417 89.3588 98.9417 90.0474V104.621C98.9417 105.233 98.693 105.788 98.1956 106.285C97.6983 106.782 97.1053 107.031 96.4167 107.031C95.8045 107.031 95.2498 106.782 94.7524 106.285C94.2551 105.788 94.0064 105.233 94.0064 104.621V90.0474C94.0064 89.3588 94.2551 88.7851 94.7524 88.326C95.2498 87.867 95.8045 87.6375 96.4167 87.6375Z" fill="#F7AF9D"/>
<path d="M78.1485 33.8174C78.7415 34.1425 79.105 34.6398 79.2389 35.3474C79.3728 36.0551 79.2771 36.7054 78.9711 37.2983C78.5885 37.9868 77.9764 38.3884 77.1156 38.5032C76.5034 38.5797 75.9678 38.4649 75.5279 38.1207C68.6032 33.9321 61.1238 32.3638 53.0896 33.4348C49.6081 33.8939 46.318 34.831 43.2 36.2272C40.0819 37.6425 37.2126 39.5169 34.6302 41.8311C34.0563 42.3092 33.4442 42.5196 32.7747 42.5005C32.1052 42.4623 31.5313 42.2136 31.0722 41.7163C30.594 41.1426 30.3836 40.5114 30.4027 39.8229C30.4218 39.1343 30.7279 38.5606 31.3018 38.0824C34.2476 35.3857 37.5187 33.2245 41.1149 31.5796C44.7111 29.9539 48.4795 28.8829 52.4201 28.3474C56.9728 27.7545 61.4298 27.9266 65.753 28.8638C70.0761 29.8009 74.208 31.4458 78.1485 33.7982V33.8174Z" fill="#F7AF9D"/>
</svg>
