<svg width="292" height="86" viewBox="0 0 292 86" fill="none" xmlns="http://www.w3.org/2000/svg">
<path d="M37.5625 66.625C33.3125 69.0625 28 70.3125 21.875 70.3125C7.5 70.3125 0.0625 58.9375 0.0625 36.875C0.0625 14.8125 7.5 3.4375 21.875 3.4375C28 3.4375 33.3125 4.6875 37.5625 7.125V17.4375H35.9375C35.0625 15.75 34.125 14 33.1875 12.375C30.5 7.5625 26.8125 5.0625 22.1875 5C22.125 5 22 5 21.875 5C12.125 5 7.0625 15.8125 7.0625 36.875C7.0625 57.9375 12.125 68.75 21.875 68.75C26.6875 68.75 30.875 65.5 34.375 59.25C34.9375 58.25 35.4375 57.25 35.9375 56.3125H37.5625V66.625Z" fill="#F1F3E6"/>
<path d="M68.875 61.5L68.8125 24.5C68.8125 19.75 67.5625 17.25 62.875 17.25C59.5 17.25 57.0625 17.5625 55.5 18.1875V61.0625C55.5625 63.75 56.9375 65.125 59.5625 65.125H61.25V70H44.0625V65.125H45.75C48.4375 65.125 49.8125 63.75 49.8125 61.0625V12.375C49.8125 8.5625 49.5 8.0625 45.75 5.5625L44.0625 4.4375V3.0625L54.375 0H55.5V17.4375C60.25 14.8125 64.1875 13.4375 67.25 13.4375C73.0625 13.4375 74.5625 17 74.5625 23.9375V61.0625C74.5625 63.75 75.9375 65.125 78.625 65.125H80.25C80.3125 65.125 80.3125 65.9375 80.25 67.5625C80.3125 69.1875 80.3125 70 80.25 70H63.125V65.125H64.8125C67.375 65.125 68.75 63.875 68.875 61.5Z" fill="#F1F3E6"/>
<path d="M96.5625 19.375L96.9375 24.1875V61.0625C97 63.75 98.375 65.125 101 65.125H102.688V70H85.5V65.125H87.1875C89.875 65.125 91.25 63.75 91.25 61.0625V26.125C91.25 22.3125 90.9375 21.8125 87.1875 19.3125L85.5 18.1875V16.8125L95 13.75H96.1875L96.5 18.6875C99.3125 15.25 102.25 13.4375 105.188 13.4375C109 13.4375 110 14.6875 110 17.125C110 18.9375 109.062 19.875 107.25 19.875C104.812 19.875 103.062 17.6875 100.625 17.6875C98.9375 17.6875 97.625 18.25 96.5625 19.375Z" fill="#F1F3E6"/>
<path d="M129.312 69.0625C135.438 69.0625 138.625 59.8125 138.625 41.875C138.625 23.9375 135.438 14.6875 129.312 14.6875C123.188 14.6875 120 23.9375 120 41.875C120 59.8125 123.188 69.0625 129.312 69.0625ZM113.688 41.875C113.688 23.125 119 13.4375 129.312 13.4375C139.625 13.4375 144.938 23.125 144.938 41.875C144.938 60.625 139.625 70.3125 129.312 70.3125C119 70.3125 113.688 60.625 113.688 41.875Z" fill="#F1F3E6"/>
<path d="M150.875 70V65.125H152.562C155.25 65.125 156.625 63.75 156.625 61.0625V12.375C156.625 8.5625 156.312 8.0625 152.562 5.5625L150.875 4.4375V3.0625L161.188 0H162.312V61.0625C162.312 63.75 163.688 65.125 166.375 65.125H168C168.062 65.125 168.062 65.9375 168 67.5625C168.062 69.1875 168.062 70 168 70H150.875Z" fill="#F1F3E6"/>
<path d="M189.562 69.0625C195.688 69.0625 198.875 59.8125 198.875 41.875C198.875 23.9375 195.688 14.6875 189.562 14.6875C183.438 14.6875 180.25 23.9375 180.25 41.875C180.25 59.8125 183.438 69.0625 189.562 69.0625ZM173.938 41.875C173.938 23.125 179.25 13.4375 189.562 13.4375C199.875 13.4375 205.188 23.125 205.188 41.875C205.188 60.625 199.875 70.3125 189.562 70.3125C179.25 70.3125 173.938 60.625 173.938 41.875Z" fill="#F1F3E6"/>
<path d="M237.938 13.75V16.9375H230.562C232.812 19.8125 233.938 24.375 233.938 30.6875C233.938 42 230.188 47.875 223 47.875H219.562C216.5 47.875 214.938 49.625 214.938 53.125C214.938 56.6875 216.75 58.375 220.188 58.25L225.5 58C232.875 58 236.688 61.5 236.688 68.25C236.688 79.375 230.75 85.0625 219.125 85.0625C212.812 85.0625 209.562 81.5 209.562 74.5C209.562 69 212.125 65.25 217 63.4375C213.125 62.625 211.125 59.875 211.125 55.3125C211.125 50.125 213.688 47.3125 218.625 46.9375C214.25 44.9375 212 39.4375 212 30.6875C212 19.3125 215.75 13.4375 223 13.4375C224.938 13.4375 226.688 13.875 228.125 14.75L237.938 13.75ZM217.438 30.6875C217.438 41.1875 219.312 46.625 223 46.625C226.688 46.625 228.562 41.1875 228.562 30.6875C228.562 20.125 226.688 14.6875 223 14.6875C219.312 14.6875 217.438 20.125 217.438 30.6875ZM218.688 63.625C215.188 64.875 213.375 68.3125 213.375 73.8125C213.375 80.1875 215.562 83.5 219.812 83.5C228.25 83.5 232.625 79.3125 232.625 71.125C232.625 66.0625 229.688 63.4375 223.938 63.4375L220.5 63.625C219.875 63.6875 219.25 63.625 218.688 63.625Z" fill="#F1F3E6"/>
<path d="M249 9.375C246.5 9.375 245.188 8.0625 245.188 5.5625C245.188 3.0625 246.5 1.75 249 1.75C251.5 1.75 252.812 3.0625 252.812 5.5625C252.812 8.0625 251.5 9.375 249 9.375ZM240.75 70V65.125H242.438C245.125 65.125 246.5 63.75 246.5 61.0625V26.125C246.5 22.3125 246.188 21.8125 242.438 19.3125L240.75 18.1875V16.8125L251.062 13.75H252.188V61.0625C252.188 63.75 253.562 65.125 256.25 65.125H257.875C257.938 65.125 257.938 65.9375 257.875 67.5625C257.938 69.1875 257.938 70 257.875 70H240.75Z" fill="#F1F3E6"/>
<path d="M290.625 66.875L291.312 67.625C289.375 69.625 287.75 70.625 283.75 70.625C280.75 70.625 279.688 69.4375 279.312 67.0625C276.688 69.1875 273.625 70.3125 270.25 70.3125C265.438 70.3125 262.938 66.125 262.938 58C262.938 49.6875 266.688 44.375 273.875 42.375L279.188 40.9375V21.5625C279.188 17.25 277.938 15 275.5 15C272.438 15 270.5 16.8125 269.812 20.3125H264.125C265.062 15.8125 269.312 13.4375 276.75 13.4375C282.312 13.4375 285.188 16.625 285.188 22.8125V63.875C285.188 66.5 285.562 67.875 287.625 67.875C289.375 67.875 290 67.5625 290.625 66.875ZM279.188 42.4375L273.875 44.1875C270.438 45.3125 268.625 49.5 268.625 56.375C268.625 63.0625 270.125 66.5 273.125 66.5C275.562 66.5 277.562 66.125 279.188 65.375C279.188 65.125 279.188 64.8125 279.188 64.5V42.4375Z" fill="#F1F3E6"/>
</svg>
